<svg width="17" height="19" viewBox="0 0 17 19" fill="none" xmlns="http://www.w3.org/2000/svg">
<path d="M10.3214 11.0203H6.67857C2.99018 11.0203 0 13.7291 0 17.0705C0 17.6779 0.543772 18.1705 1.21429 18.1705H15.7857C16.4562 18.1705 17 17.6779 17 17.0705C17 13.7291 14.0098 11.0203 10.3214 11.0203ZM1.859 16.5205C2.15877 14.3513 4.20446 12.6704 6.67857 12.6704H10.3214C12.794 12.6704 14.8408 14.3531 15.1406 16.5205H1.859ZM8.5 9.37028C11.1824 9.37028 13.3571 7.4002 13.3571 4.97017C13.3571 2.54015 11.1824 0.570068 8.5 0.570068C5.81757 0.570068 3.64286 2.54015 3.64286 4.97017C3.64286 7.40055 5.81719 9.37028 8.5 9.37028ZM8.5 2.22011C10.1738 2.22011 11.5357 3.45386 11.5357 4.97017C11.5357 6.48649 10.1738 7.72024 8.5 7.72024C6.82618 7.72024 5.46429 6.48615 5.46429 4.97017C5.46429 3.45386 6.82656 2.22011 8.5 2.22011Z" fill="#DADADA"/>
</svg>
